<svg xmlns="http://www.w3.org/2000/svg" width="12" height="11.254" viewBox="0 0 12 11.254">
  <path id="Path_822" data-name="Path 822" d="M0,11.254V5.889A5.463,5.463,0,0,1,.335,3.732a5.14,5.14,0,0,1,1-1.808A4.748,4.748,0,0,1,2.847.641,5.258,5.258,0,0,1,4.744,0V2.332a2.834,2.834,0,0,0-1.73,1.341,4.463,4.463,0,0,0-.447,2.216H4.8v5.364Zm7.144,0V5.889a5.463,5.463,0,0,1,.335-2.157,5.14,5.14,0,0,1,1-1.808A6.389,6.389,0,0,1,9.991.641,5.543,5.543,0,0,1,11.944,0V2.332a2.877,2.877,0,0,0-1.73,1.341,4.463,4.463,0,0,0-.447,2.216H12v5.364Z" fill="#24231f"/>
</svg>
