<svg xmlns="http://www.w3.org/2000/svg" width="297.454" height="237.083" viewBox="0 0 297.454 237.083">
  <g id="Group_438" data-name="Group 438" transform="translate(57.573)">
    <path id="Path_865" data-name="Path 865" d="M101.794,0A42.181,42.181,0,0,1,77.751,7.294,42.181,42.181,0,0,1,53.707,0L50.6,15.4,77.751,30.8,104.9,15.4Z" transform="translate(17.749)" fill="#808285"/>
    <path id="Path_866" data-name="Path 866" d="M156.285,15.8,119.544,0S112.25,17.425,95.5,17.425,71.456,0,71.456,0L34.85,15.8,0,62.676,31.608,86.99l9.185-11.347,2.161,111.034s15.534,2.566,52.545,2.566,52.545-2.566,52.545-2.566l2.161-111.034,9.185,11.347L191,62.676Z" fill="#d8d8d8"/>
    <path id="Path_867" data-name="Path 867" d="M30.3,52.6s80.777,24.314,79.561,34.445-58.219-11.076-60.785-5c-2.566,5.943,26.61,14.588,24.989,19.316S31.11,94.744,31.11,94.744Z" transform="translate(10.629 18.451)" fill="#cbcbcb"/>
  </g>
  <g id="Group_435" data-name="Group 435" transform="translate(-0.046 134.559)">
    <path id="Path_852" data-name="Path 852" d="M26.569,101.416S9.032,112.582,3.163,108.932s-1.646-6.585-1.646-6.585L17.049,93.9Z" transform="translate(0 -26.701)" fill="#6d6e71"/>
    <path id="Path_853" data-name="Path 853" d="M28.914,71.794,2,93.053s8.232-5.154,16.821-1.861,31.5,29.849,47.6,28.7,43.735-32.784,43.735-32.784L59.264,61.2,32.923,66.354Z" transform="translate(-0.555 -17.408)" fill="#d1d3d4"/>
    <path id="Path_854" data-name="Path 854" d="M39.6,54.386s3.651-4.366,15.891-1.861C67.8,55.173,101.66,68.7,117.765,69.633s24.48,1.074,24.48,1.074,5.512-30.207-1.074-43.521S116.262,2.992,99.226.415,57.71,6.141,47.116,20.171C40.316,29.19,39.6,54.386,39.6,54.386Z" transform="translate(-11.241 0)" fill="#e6e7e8"/>
    <path id="Path_855" data-name="Path 855" d="M121.593.458C120.519.315,119.445.172,118.3.1c2.076,1.217,22.047,13.457,24.91,31.209,3.006,18.682,0,38.438,0,38.438,14.1.787,21.4.931,21.4.931s5.512-30.207-1.074-43.521S138.629,3.035,121.593.458Z" transform="translate(-33.608 -0.043)" fill="#bcbec0"/>
  </g>
  <g id="Group_436" data-name="Group 436" transform="translate(168.6 127.678)">
    <path id="Path_857" data-name="Path 857" d="M145.706,13.5s-54,31.517-58.758,36.827S73.913,79.086,76.4,81.017s7.379-3.172,8-5.586c.621-2.483,2.759-19.379,6-22.9s13.1-3.586,16.069-4.9,42.207-27.862,42.207-27.862Z" transform="translate(-23.577 -4.213)" fill="#e6e7e8"/>
    <path id="Path_858" data-name="Path 858" d="M5.853,19.8S-.423,39.731-.009,49.938C.612,65.317,7.922,80.765,7.922,80.765S2.888,68.7,2.543,57.041,8.267,27.248,8.267,27.248Z" transform="translate(0 -6.168)" fill="#e6e7e8"/>
    <path id="Path_859" data-name="Path 859" d="M14.963,93.227c-.69-1.241-7.31-14.414-9.034-26.345s5.862-36.9,5.862-36.9L9.86,28.4l-.552.759.207.69S3.377,47.986,3.791,59.641a5.22,5.22,0,0,0,.069,1.034l.759,6.552A81.867,81.867,0,0,0,9.239,83.3s-.621-1.379-1.517-3.655c.207.69.483,1.379.759,2.069,2.069,5.448,5.586,13.1,6.414,13.448.759.345,1.724-.483,1.724-.483A2.623,2.623,0,0,1,14.963,93.227Z" transform="translate(-1.179 -8.837)" fill="#bcbec0"/>
    <path id="Path_860" data-name="Path 860" d="M8.477,13.632C9.1,12.6,34.2,3.425,49.166,3.977s14.621,2.69,23.1,2.483c8.483-.138,11.448-.069,19.448-2.828S102.959-.989,114.683.39c8.483.966,14.276,3.448,14.828,4s1.724,5.517,1.586,6.207-.759,1.034-.9,1.724,3.034,16.483-.138,20.138-16.69,7.448-28.276,2.138S87.994,12.459,81.58,13.287C74.339,14.252,78.959,30.8,67.925,39.7c-9.448,7.586-31.034,11.655-41.034,5.724-8.483-5.034-12.069-22.9-12.965-23.586s-2.276-.138-2.966-.759S8.063,14.459,8.477,13.632Z" transform="translate(-2.624 0)" fill="#e6e7e8"/>
    <path id="Path_861" data-name="Path 861" d="M35.738,46.457c8.207,3.724,28.69,1.1,36.759-7.655a20.573,20.573,0,0,0,3.172-23.655C73.531,11.56,62.5,9.078,49.117,10.181c-14.138,1.172-23.034,4.483-24.207,10.483C23.669,26.664,28.359,43.077,35.738,46.457Z" transform="translate(-7.678 -3.101)" fill="#6d6e71"/>
    <path id="Path_862" data-name="Path 862" d="M126.363,9.688c2.9-3.448,11.172-6.965,21.1-6.414s13.172,3.586,14.621,5.379c1.931,2.345,5.931,15.034,3.172,21.793-1.586,3.931-12.9,8.138-24.621,3.034C130.432,29.067,123.88,12.653,126.363,9.688Z" transform="translate(-39.062 -1.022)" fill="#6d6e71"/>
    <path id="Path_863" data-name="Path 863" d="M161.245,38.472a9.68,9.68,0,0,1-3.1,2.138c-.207.138-.483.207-.69.345a19.072,19.072,0,0,1-2.621.966,31.228,31.228,0,0,1-5.517,1.1,23.457,23.457,0,0,1-3.1.207,30.556,30.556,0,0,1-4.345-.207,29.573,29.573,0,0,1-8.828-2.414c-7.241-3.31-10.828-11.1-14.069-16.276-1.793-2.828-3.448-4.9-5.586-5.034h-.621a2.014,2.014,0,0,0-.621.138c-.069,0-.138.069-.207.069-.138.069-.207.069-.276.138-1.31.621-2.138,1.931-2.759,3.724a4.319,4.319,0,0,1,3.241-2.414,3.972,3.972,0,0,1,2,.345c1.862,2.207,3.31,7.172,5.931,10.828a30.408,30.408,0,0,0,8.759,7.931,20.816,20.816,0,0,0,3.586,2.207c11.586,5.241,25.1,1.448,28.276-2.138a5.014,5.014,0,0,0,.9-1.931A1.886,1.886,0,0,0,161.245,38.472Z" transform="translate(-33.806 -6.013)" fill="#bcbec0"/>
    <path id="Path_864" data-name="Path 864" d="M67.538,46.5C58.09,54.083,36.5,58.152,26.5,52.221c-8.483-5.034-12.069-22.9-12.965-23.586s-2.276-.138-2.966-.759c-.552-.552-1.931-4.207-2.345-6.276a3.572,3.572,0,0,0-.759.483c-.483.759,1.724,6.759,2.414,7.448s2.069.138,2.966.759c.9.69,4.483,18.552,12.965,23.586,10,5.931,31.586,1.862,41.034-5.724a20.554,20.554,0,0,0,6.207-8.828A18.642,18.642,0,0,1,67.538,46.5Z" transform="translate(-2.306 -6.727)" fill="#bcbec0"/>
  </g>
</svg>
