<svg xmlns="http://www.w3.org/2000/svg" xmlns:xlink="http://www.w3.org/1999/xlink" width="135.785" height="13.041" viewBox="0 0 135.785 13.041">
  <defs>
    <clipPath id="clip-path">
      <rect width="13.041" height="135.785" fill="none"/>
    </clipPath>
  </defs>
  <g id="Squiggle:_Yellow_short_thick" data-name="Squiggle: Yellow, short, thick" transform="translate(135.785) rotate(90)" clip-path="url(#clip-path)">
    <path id="Path_767" data-name="Path 767" d="M2.445,135.785A2.452,2.452,0,0,1,0,133.34c0-4.727,2.73-7.172,4.89-9.088,2.078-1.875,3.26-3.016,3.26-5.461,0-2.4-1.182-3.586-3.26-5.461-2.2-1.956-4.89-4.36-4.89-9.088s2.73-7.132,4.89-9.088c2.078-1.875,3.26-3.016,3.26-5.461,0-2.4-1.182-3.586-3.26-5.461C2.73,82.319,0,79.874,0,75.147s2.73-7.132,4.89-9.088c2.078-1.875,3.26-3.016,3.26-5.461s-1.182-3.586-3.26-5.461C2.73,53.222,0,50.818,0,46.05c0-4.727,2.73-7.132,4.89-9.088,2.078-1.875,3.26-3.016,3.26-5.461,0-2.4-1.182-3.586-3.26-5.461C2.73,24.125,0,21.721,0,16.994S2.73,9.862,4.89,7.906C6.969,6.031,8.15,4.89,8.15,2.445a2.445,2.445,0,1,1,4.89,0c0,4.727-2.73,7.132-4.89,9.088-2.078,1.875-3.26,3.016-3.26,5.461,0,2.4,1.182,3.586,3.26,5.461,2.2,1.956,4.89,4.36,4.89,9.088s-2.73,7.132-4.89,9.088C6.072,42.5,4.89,43.645,4.89,46.09c0,2.4,1.182,3.586,3.26,5.461,2.2,1.956,4.89,4.36,4.89,9.088s-2.73,7.132-4.89,9.088C6.072,71.6,4.89,72.742,4.89,75.187c0,2.4,1.182,3.586,3.26,5.461,2.2,1.956,4.89,4.36,4.89,9.088s-2.73,7.132-4.89,9.088c-2.078,1.875-3.26,3.016-3.26,5.461,0,2.4,1.182,3.586,3.26,5.461,2.2,1.956,4.89,4.36,4.89,9.088S10.31,126,8.15,127.92c-2.078,1.875-3.26,3.016-3.26,5.461A2.444,2.444,0,0,1,2.445,135.785Z" fill="#fcdf03"/>
  </g>
</svg>
