<svg xmlns="http://www.w3.org/2000/svg" xmlns:xlink="http://www.w3.org/1999/xlink" width="18" height="321.2" viewBox="0 0 18 321.2">
  <defs>
    <clipPath id="clip-path">
      <rect width="18" height="321.2" fill="none"/>
    </clipPath>
  </defs>
  <g id="Squiggle:_Pink_long" data-name="Squiggle: Pink, long" clip-path="url(#clip-path)">
    <path id="Path_764" data-name="Path 764" d="M4,321.2H0c0-5.8,4.2-8.6,7.9-11.1,3.3-2.2,6.1-4.1,6.1-7.8s-2.8-5.6-6.1-7.8C4.2,292,0,289.2,0,283.4s4.2-8.6,7.9-11.1c3.3-2.2,6.1-4.1,6.1-7.8s-2.8-5.6-6.1-7.8C4.2,254.2,0,251.4,0,245.6s4.2-8.6,7.9-11.1c3.3-2.2,6.1-4.1,6.1-7.8s-2.8-5.6-6.1-7.8C4.2,216.4,0,213.6,0,207.8s4.2-8.6,7.9-11.1c3.3-2.2,6.1-4.1,6.1-7.8s-2.8-5.6-6.1-7.8C4.2,178.6,0,175.8,0,170s4.2-8.6,7.9-11.1c3.3-2.2,6.1-4.1,6.1-7.8s-2.8-5.6-6.1-7.8C4.2,140.8,0,138,0,132.2s4.2-8.6,7.9-11.1c3.3-2.2,6.1-4.1,6.1-7.8s-2.8-5.6-6.1-7.8c-3.7-2.4-7.9-5.3-7.9-11,0-5.8,4.2-8.6,7.9-11.1,3.3-2.2,6.1-4.1,6.1-7.8S11.2,70,7.9,67.8C4.2,65.3,0,62.5,0,56.7s4.2-8.6,7.9-11.1c3.3-2.2,6.1-4.1,6.1-7.8S11.2,32.2,7.9,30C4.2,27.5,0,24.7,0,18.9S4.2,10.3,7.9,7.8C11.2,5.6,14,3.7,14,0h4c0,5.8-4.2,8.6-7.9,11.1C6.8,13.3,4,15.2,4,18.9s2.8,5.6,6.1,7.8C13.8,29.2,18,32,18,37.8s-4.2,8.6-7.9,11.1C6.8,51.1,4,53,4,56.7s2.8,5.6,6.1,7.8C13.8,67,18,69.8,18,75.6s-4.2,8.6-7.9,11.1C6.8,88.9,4,90.8,4,94.5s2.8,5.6,6.1,7.8c3.7,2.5,7.9,5.3,7.9,11.1s-4.2,8.6-7.9,11.1c-3.3,2.2-6.1,4.1-6.1,7.8s2.8,5.6,6.1,7.8c3.7,2.5,7.9,5.3,7.9,11.1s-4.2,8.6-7.9,11.1C6.8,164.4,4,166.4,4,170c0,3.7,2.8,5.6,6.1,7.8,3.7,2.5,7.9,5.3,7.9,11.1s-4.2,8.6-7.9,11.1c-3.3,2.2-6.1,4.1-6.1,7.8s2.8,5.6,6.1,7.8c3.7,2.5,7.9,5.3,7.9,11.1s-4.2,8.6-7.9,11.1C6.8,240,4,241.9,4,245.6s2.8,5.6,6.1,7.8c3.7,2.5,7.9,5.3,7.9,11.1s-4.2,8.6-7.9,11.1c-3.3,2.2-6.1,4.1-6.1,7.8s2.8,5.6,6.1,7.8c3.7,2.5,7.9,5.3,7.9,11.1s-4.2,8.6-7.9,11.1C6.8,315.6,4,317.5,4,321.2Z" fill="#f878b9"/>
  </g>
</svg>
