<svg xmlns="http://www.w3.org/2000/svg" width="159" height="12.829" viewBox="0 0 159 12.829">
  <g id="Group_367" data-name="Group 367" transform="translate(0 0.1)">
    <path id="Path_739" data-name="Path 739" d="M13.936,9.282c-.781,2.41-2.67,3.517-6.9,3.517-2.6,0-4.428-.521-5.6-1.628A6.918,6.918,0,0,1,0,6.417,6.486,6.486,0,0,1,1.368,2.054Q3.126.1,7.229.1c4.559,0,6.382,1.693,6.708,3.712a8.929,8.929,0,0,1,.13,1.758H9.117a2.224,2.224,0,0,0-.13-.977c-.2-.586-.716-.912-1.889-.912a1.653,1.653,0,0,0-1.693.847,5.227,5.227,0,0,0-.26,1.954A4.043,4.043,0,0,0,5.47,8.5a1.84,1.84,0,0,0,1.758.781c1.042,0,1.563-.326,1.758-.781a1.761,1.761,0,0,0,.2-.977h4.949C14.067,7.85,14.067,8.826,13.936,9.282Z" transform="translate(0 -0.07)" fill="#fff"/>
    <path id="Path_740" data-name="Path 740" d="M36.464,6.943a2.533,2.533,0,0,1-1.5,1.172L37.9,12.673h-5.47L30.408,9.157H28.519v3.517H23.7V.3h8.857A4.71,4.71,0,0,1,36.2,1.472,4.381,4.381,0,0,1,37.115,4.4,4.548,4.548,0,0,1,36.464,6.943Zm-4.3-2.67a.893.893,0,0,0-.847-.391H28.584V5.835h2.735c.326,0,.716-.065.847-.326a1.174,1.174,0,0,0,.13-.651A.876.876,0,0,0,32.166,4.273Z" transform="translate(-8.266 -0.14)" fill="#fff"/>
    <path id="Path_741" data-name="Path 741" d="M59.841,2.7a7.053,7.053,0,0,1,.716,3.517A7.943,7.943,0,0,1,59.841,9.8c-.847,1.889-3.061,2.865-6.512,2.865s-5.47-.977-6.512-2.8A7.935,7.935,0,0,1,46.1,6.217,6.592,6.592,0,0,1,46.816,2.9c.977-1.823,2.931-3,6.512-3C56.715-.035,58.8.942,59.841,2.7ZM55.608,6.347c0-1.889-.26-2.8-2.279-2.8-1.889,0-2.214,1.042-2.214,2.8,0,1.823.326,2.865,2.214,2.865C55.413,9.213,55.608,8.04,55.608,6.347Z" transform="translate(-16.078)" fill="#fff"/>
    <path id="Path_742" data-name="Path 742" d="M85.492,12.673H80.218S78.655,7.4,78.589,6.617a61.091,61.091,0,0,1-1.563,6.056h-5.21L68.3.3h5.21s1.433,6.252,1.433,7.033C74.943,6.552,76.505.3,76.505.3h4.754s1.628,6.252,1.628,7.033c0-.781,1.3-7.033,1.3-7.033h4.754Z" transform="translate(-23.821 -0.14)" fill="#fff"/>
    <path id="Path_743" data-name="Path 743" d="M109.415,12.673H101.6V.3h7.619c2.54,0,4.1.651,4.884,1.823s.847,2.019.847,4.1c0,2.6-.13,3.386-.781,4.428C113.322,11.957,111.889,12.673,109.415,12.673Zm.781-6.447a5.37,5.37,0,0,0-.26-1.823,1.74,1.74,0,0,0-1.628-.651h-1.889v5.47h1.889a1.823,1.823,0,0,0,1.628-.651A6.648,6.648,0,0,0,110.2,6.226Z" transform="translate(-35.435 -0.14)" fill="#fff"/>
    <path id="Path_744" data-name="Path 744" d="M128.984,3.947V5.054h5.926V8.636h-5.926v4.038H124.1V.3h11.266V3.882h-6.382Z" transform="translate(-43.282 -0.14)" fill="#fff"/>
    <path id="Path_745" data-name="Path 745" d="M149.643,12.869c-3.712,0-6.643-1.368-6.643-4.949V.3h4.949V7.789c0,.847.716,1.368,1.758,1.368,1.172,0,1.823-.586,1.823-1.368V.3h4.884V8.245C156.415,11.436,153.55,12.869,149.643,12.869Z" transform="translate(-49.874 -0.14)" fill="#fff"/>
    <path id="Path_746" data-name="Path 746" d="M174.175,12.673l-3.386-5.21v5.21H166.1V.3h4.949l3.256,5.21V.3h4.689V12.673Z" transform="translate(-57.931 -0.14)" fill="#fff"/>
    <path id="Path_747" data-name="Path 747" d="M196.415,12.673H188.6V.3h7.619c2.54,0,4.1.651,4.884,1.823s.847,2.019.847,4.1c0,2.6-.13,3.386-.781,4.428C200.322,11.957,198.889,12.673,196.415,12.673Zm.781-6.447a5.369,5.369,0,0,0-.261-1.823,1.74,1.74,0,0,0-1.628-.651h-1.889v5.47h1.889a1.823,1.823,0,0,0,1.628-.651A8.611,8.611,0,0,0,197.2,6.226Z" transform="translate(-65.778 -0.14)" fill="#fff"/>
    <path id="Path_750" data-name="Path 750" d="M262.366,8.115l2.931,4.559h-5.47l-2.019-3.517h-1.889v3.517H251.1V.3h8.857A4.71,4.71,0,0,1,263.6,1.472a4.381,4.381,0,0,1,.912,2.931C264.515,5.51,262.887,7.985,262.366,8.115Zm-2.735-3.842a.893.893,0,0,0-.847-.391h-2.735V5.835h2.735c.326,0,.716-.065.847-.326a1.174,1.174,0,0,0,.13-.651A1.555,1.555,0,0,0,259.631,4.273Z" transform="translate(-113.576 -0.14)" fill="#fff"/>
    <path id="Path_754" data-name="Path 754" d="M341.714,7.919h-4.363L336.7.3h5.731Zm-4.493,4.754V8.506h4.689v4.168Z" transform="translate(-183.431 -0.14)" fill="#fff"/>
  </g>
</svg>
