<svg xmlns="http://www.w3.org/2000/svg" xmlns:xlink="http://www.w3.org/1999/xlink" width="136" height="66.141" viewBox="0 0 136 66.141">
  <defs>
    <clipPath id="clip-path">
      <rect width="136" height="66.141" fill="none"/>
    </clipPath>
  </defs>
  <g id="Dots:_Pink_medium" data-name="Dots: Pink, medium" clip-path="url(#clip-path)">
    <ellipse id="Ellipse_297" data-name="Ellipse 297" cx="3.914" cy="3.914" rx="3.914" ry="3.914" transform="translate(128.173)" fill="#f878b9"/>
    <ellipse id="Ellipse_298" data-name="Ellipse 298" cx="3.914" cy="3.914" rx="3.914" ry="3.914" transform="translate(128.173 29.157)" fill="#f878b9"/>
    <ellipse id="Ellipse_299" data-name="Ellipse 299" cx="3.914" cy="3.914" rx="3.914" ry="3.914" transform="translate(128.173 58.314)" fill="#f878b9"/>
    <ellipse id="Ellipse_300" data-name="Ellipse 300" cx="3.914" cy="3.914" rx="3.914" ry="3.914" transform="translate(102.538)" fill="#f878b9"/>
    <ellipse id="Ellipse_301" data-name="Ellipse 301" cx="3.914" cy="3.914" rx="3.914" ry="3.914" transform="translate(102.538 29.157)" fill="#f878b9"/>
    <ellipse id="Ellipse_302" data-name="Ellipse 302" cx="3.914" cy="3.914" rx="3.914" ry="3.914" transform="translate(102.538 58.314)" fill="#f878b9"/>
    <ellipse id="Ellipse_303" data-name="Ellipse 303" cx="3.914" cy="3.914" rx="3.914" ry="3.914" transform="translate(76.904)" fill="#f878b9"/>
    <ellipse id="Ellipse_304" data-name="Ellipse 304" cx="3.914" cy="3.914" rx="3.914" ry="3.914" transform="translate(76.904 29.157)" fill="#f878b9"/>
    <ellipse id="Ellipse_305" data-name="Ellipse 305" cx="3.914" cy="3.914" rx="3.914" ry="3.914" transform="translate(76.904 58.314)" fill="#f878b9"/>
    <ellipse id="Ellipse_306" data-name="Ellipse 306" cx="3.914" cy="3.914" rx="3.914" ry="3.914" transform="translate(51.269)" fill="#f878b9"/>
    <ellipse id="Ellipse_307" data-name="Ellipse 307" cx="3.914" cy="3.914" rx="3.914" ry="3.914" transform="translate(51.269 29.157)" fill="#f878b9"/>
    <ellipse id="Ellipse_308" data-name="Ellipse 308" cx="3.914" cy="3.914" rx="3.914" ry="3.914" transform="translate(51.269 58.314)" fill="#f878b9"/>
    <ellipse id="Ellipse_309" data-name="Ellipse 309" cx="3.914" cy="3.914" rx="3.914" ry="3.914" transform="translate(25.635)" fill="#f878b9"/>
    <ellipse id="Ellipse_310" data-name="Ellipse 310" cx="3.914" cy="3.914" rx="3.914" ry="3.914" transform="translate(25.635 29.157)" fill="#f878b9"/>
    <ellipse id="Ellipse_311" data-name="Ellipse 311" cx="3.914" cy="3.914" rx="3.914" ry="3.914" transform="translate(25.635 58.314)" fill="#f878b9"/>
    <ellipse id="Ellipse_312" data-name="Ellipse 312" cx="3.914" cy="3.914" rx="3.914" ry="3.914" fill="#f878b9"/>
    <ellipse id="Ellipse_313" data-name="Ellipse 313" cx="3.914" cy="3.914" rx="3.914" ry="3.914" transform="translate(0 29.157)" fill="#f878b9"/>
    <ellipse id="Ellipse_314" data-name="Ellipse 314" cx="3.914" cy="3.914" rx="3.914" ry="3.914" transform="translate(0 58.314)" fill="#f878b9"/>
  </g>
</svg>
