<svg xmlns="http://www.w3.org/2000/svg" width="251.965" height="252.161" viewBox="0 0 251.965 252.161">
  <g id="Group_541" data-name="Group 541" transform="translate(-670.07 -1876.406)">
    <path id="Subtraction_7" data-name="Subtraction 7" d="M35.055,211.816h0A126.151,126.151,0,0,1,19.4,191.928,124.466,124.466,0,0,1,1.893,146.716,125.3,125.3,0,0,1,9.98,75.954,124.262,124.262,0,0,1,21.8,54.419,125.889,125.889,0,0,1,38.155,35.094,133.661,133.661,0,0,1,57.228,19.731,117,117,0,0,1,100.623,2.19,132.949,132.949,0,0,1,124.965,0V29.678h-.3a95.686,95.686,0,0,0-19.143,1.93A94.466,94.466,0,0,0,71.563,45.9,95.271,95.271,0,0,0,37.147,87.691a94.534,94.534,0,0,0-5.536,17.83,95.928,95.928,0,0,0-.062,37.974,94.431,94.431,0,0,0,13.844,33.51,95.593,95.593,0,0,0,11.25,13.953L35.056,211.815Z" transform="translate(671.07 1877.406)" fill="#202020" stroke="#f5f5f5" stroke-width="2"/>
    <path id="Subtraction_3" data-name="Subtraction 3" d="M88.741,59.171h-.007A122.24,122.24,0,0,1,64.245,56.7,120.029,120.029,0,0,1,40.97,49.395,122.933,122.933,0,0,1,19.395,37.389,131.169,131.169,0,0,1,0,20.826L21.555,0A95.721,95.721,0,0,0,35.708,11.937,95.022,95.022,0,0,0,52.026,20.96a94.51,94.51,0,0,0,18.081,5.708A95.634,95.634,0,0,0,89.549,28.66a95.488,95.488,0,0,0,21.646-2.477l6.818,29.6A130.6,130.6,0,0,1,88.741,59.171Z" transform="translate(706.19 2068.397)" fill="#9dc408" stroke="#f5f5f5" stroke-width="2"/>
    <path id="Subtraction_4" data-name="Subtraction 4" d="M6.806,172.566,0,143.039a94.273,94.273,0,0,0,29.21-12.249A95.246,95.246,0,0,0,52.47,110,94.625,94.625,0,0,0,67.843,82.6,94.717,94.717,0,0,0,73.4,50.517a95.639,95.639,0,0,0-2.075-19.842,94.466,94.466,0,0,0-5.943-18.412L92.893,0A125.966,125.966,0,0,1,100.8,24.042a124.334,124.334,0,0,1,2.879,24.389,125.027,125.027,0,0,1-1.9,24.073,125.889,125.889,0,0,1-6.425,23.1,125.936,125.936,0,0,1-10.7,21.457,125.038,125.038,0,0,1-14.71,19.157,124.53,124.53,0,0,1-18.473,16.195A126.145,126.145,0,0,1,29.5,164.98a126.045,126.045,0,0,1-22.691,7.586Z" transform="translate(817.331 1951.552)" fill="#fcdf03" stroke="#f5f5f5" stroke-width="2"/>
    <path id="Subtraction_5" data-name="Subtraction 5" d="M13.9,41.761h0A94.992,94.992,0,0,0,0,19.349L23.031,0A122.528,122.528,0,0,1,33.372,14.026a122.449,122.449,0,0,1,8.064,15.46L13.9,41.761Z" transform="translate(868.787 1922)" fill="#ffae31" stroke="#f5f5f5" stroke-width="2"/>
    <path id="Subtraction_6" data-name="Subtraction 6" d="M72.723,63.909h0a95.725,95.725,0,0,0-14.577-14.13A95.186,95.186,0,0,0,40.812,39.009a94.49,94.49,0,0,0-19.559-6.877A95.475,95.475,0,0,0,0,29.677V0A133.919,133.919,0,0,1,27.729,2.821a117.99,117.99,0,0,1,25.3,8.418A117.817,117.817,0,0,1,75.742,25.185,133.426,133.426,0,0,1,95.716,44.593L72.724,63.909Z" transform="translate(796.038 1877.406)" fill="#f878b9" stroke="#f5f5f5" stroke-width="2"/>
  </g>
</svg>
