<svg xmlns="http://www.w3.org/2000/svg" width="142" height="24" viewBox="0 0 142 24">
  <g id="Group_356" data-name="Group 356" transform="translate(-1040 -585)">
    <text id="_5_5" data-name="5/5" transform="translate(1153 589)" fill="#24231f" font-size="12" font-family="SegoeUI-Light, Segoe UI" font-weight="300" letter-spacing="0.025em"><tspan x="0" y="13">5/5</tspan></text>
    <g id="Favorite" transform="translate(860 259)">
      <path id="Path_157" data-name="Path 157" d="M8,0l2.5,5,5.5.8L12,9.7l.9,5.5L8,12.6,3.1,15.2,4,9.7,0,5.8,5.5,5Z" transform="translate(180 326)" fill="#ffae31"/>
      <path id="Path_727" data-name="Path 727" d="M8,0l2.5,5,5.5.8L12,9.7l.9,5.5L8,12.6,3.1,15.2,4,9.7,0,5.8,5.5,5Z" transform="translate(202 326)" fill="#ffae31"/>
      <path id="Path_728" data-name="Path 728" d="M8,0l2.5,5,5.5.8L12,9.7l.9,5.5L8,12.6,3.1,15.2,4,9.7,0,5.8,5.5,5Z" transform="translate(224 326)" fill="#ffae31"/>
      <path id="Path_729" data-name="Path 729" d="M8,0l2.5,5,5.5.8L12,9.7l.9,5.5L8,12.6,3.1,15.2,4,9.7,0,5.8,5.5,5Z" transform="translate(246 326)" fill="#ffae31"/>
      <path id="Path_730" data-name="Path 730" d="M8,0l2.5,5,5.5.8L12,9.7l.9,5.5L8,12.6,3.1,15.2,4,9.7,0,5.8,5.5,5Z" transform="translate(265 326)" fill="#ffae31"/>
      <rect id="Rectangle_1449" data-name="Rectangle 1449" width="16" height="16" transform="translate(180 326)" fill="none"/>
    </g>
  </g>
</svg>
