<svg id="Group_592" data-name="Group 592" xmlns="http://www.w3.org/2000/svg" width="164.1" height="57.6" viewBox="0 0 164.1 57.6">
  <rect id="Rectangle_1925" data-name="Rectangle 1925" width="164.1" height="57.6"/>
  <g id="Group_591" data-name="Group 591">
    <path id="Path_921" data-name="Path 921" d="M119.5,11h10.9s3.2,15.4,3.4,18.3c.1-2.9,3.4-18.3,3.4-18.3h10.7l7,34.7h-10s-3.2-19.7-3.2-22.5c0,2.8-3.5,22.5-3.5,22.5h-9.4s-3.7-19.7-3.7-22.5c0,2.8-3,22.5-3,22.5h-9.4Z" fill="#fff"/>
    <path id="Path_922" data-name="Path 922" d="M93.2,14.7c1.7-2.3,4.4-4,9.5-4,4.9,0,8,1.5,9.7,4.1,1.3,1.8,2,4.5,2,8.4,0,2.4-.5,6-1.9,7.9-1.7,2.5-4.6,4.5-10,4.5-5.8,0-9-2.9-10.4-6.1-.8-2-1.1-5.9-.9-8.8h14.5c0-2.3-.6-3.8-3.1-3.8-2.1,0-3,1.1-3,2.4H91.3A11.4,11.4,0,0,1,93.2,14.7Zm6.9,13.2a2.7,2.7,0,0,0,2.6,1.3,3.1,3.1,0,0,0,2.7-1.3,5.6,5.6,0,0,0,.5-2.5H99.7A5.914,5.914,0,0,0,100.1,27.9Z" fill="#fff"/>
    <path id="Path_923" data-name="Path 923" d="M88.9,11c.2,0,.2.2.2,2.2V35H80.2V13.1c0-1.8,0-2.1-.2-2.1Zm.3,25.4v7.3h-9V36.4Z" fill="#fff"/>
    <path id="Path_924" data-name="Path 924" d="M60.6,27.2a11.812,11.812,0,0,0,4.2.7c2.3,0,3.7-1.2,3.7-4.1V11h8.9V35H68.8V32c-.3,2.1-2.6,3.5-5.4,3.5a9.568,9.568,0,0,1-2.7-.3v-8Z" fill="#fff"/>
    <path id="Path_925" data-name="Path 925" d="M44.8,33V45.8H36.3v-31c0-1.5-.3-3.9-.3-3.9h7.7l.8,2.3c1.1-1.5,3-2.5,6.2-2.5,3.3,0,5.8,1.3,7.2,3.7,1.2,2,1.7,4.9,1.7,8.6a17.911,17.911,0,0,1-1.4,8,8.151,8.151,0,0,1-7.7,4.4C47.9,35.4,45.9,34.7,44.8,33Zm5.6-5.7a9.564,9.564,0,0,0,.7-4.3,12.926,12.926,0,0,0-.6-4.4A2.344,2.344,0,0,0,48,17.1a2.386,2.386,0,0,0-2.5,1.5,10.193,10.193,0,0,0-.7,4.4,12.8,12.8,0,0,0,.5,4.1,2.31,2.31,0,0,0,2.5,1.5C49.3,28.6,49.9,28.2,50.4,27.3Z" fill="#fff"/>
    <path id="Path_926" data-name="Path 926" d="M12.1,16.4c1.4-3.2,4.8-5.7,10.5-5.7,4.8,0,8.5,1.5,10.7,5.7a18.337,18.337,0,0,1,1.1,6.8,15.742,15.742,0,0,1-1.3,6.9c-2.1,3.8-5.9,5.4-10.6,5.4-4.9,0-8.6-1.8-10.5-5.6a18.022,18.022,0,0,1-1.2-6.8A14.333,14.333,0,0,1,12.1,16.4Zm7.7,10.9c.4.9,1.2,1.4,2.7,1.4a2.715,2.715,0,0,0,2.7-1.5,12.708,12.708,0,0,0,.5-4.2,16.079,16.079,0,0,0-.5-4.2c-.3-1-1.3-1.5-2.7-1.5a2.874,2.874,0,0,0-2.7,1.5,11.556,11.556,0,0,0-.5,4.2A15.8,15.8,0,0,0,19.8,27.3Z" fill="#fff"/>
  </g>
</svg>
